<?xml version="1.0" encoding="UTF-8" standalone="no"?>
<!-- Created with Inkscape (http://www.inkscape.org/) -->

<svg
   width="99.999992mm"
   height="100mm"
   viewBox="0 0 99.999992 100"
   version="1.1"
   id="svg1"
   xml:space="preserve"
   inkscape:version="1.3.2 (091e20ef0f, 2023-11-25)"
   sodipodi:docname="gerbo.svg"
   xmlns:inkscape="http://www.inkscape.org/namespaces/inkscape"
   xmlns:sodipodi="http://sodipodi.sourceforge.net/DTD/sodipodi-0.dtd"
   xmlns:xlink="http://www.w3.org/1999/xlink"
   xmlns="http://www.w3.org/2000/svg"
   xmlns:svg="http://www.w3.org/2000/svg"
   xmlns:rdf="http://www.w3.org/1999/02/22-rdf-syntax-ns#"
   xmlns:cc="http://creativecommons.org/ns#"
   xmlns:dc="http://purl.org/dc/elements/1.1/"><title
     id="title1">Gerbo</title><sodipodi:namedview
     id="namedview1"
     pagecolor="#ffffff"
     bordercolor="#000000"
     borderopacity="0.25"
     inkscape:showpageshadow="2"
     inkscape:pageopacity="0.0"
     inkscape:pagecheckerboard="0"
     inkscape:deskcolor="#d1d1d1"
     inkscape:document-units="mm"
     showguides="true"
     inkscape:zoom="0.70710678"
     inkscape:cx="117.37973"
     inkscape:cy="42.426407"
     inkscape:window-width="1499"
     inkscape:window-height="1024"
     inkscape:window-x="2099"
     inkscape:window-y="24"
     inkscape:window-maximized="0"
     inkscape:current-layer="layer1"><sodipodi:guide
       position="49.995441,4.181827"
       orientation="1,0"
       id="guide2"
       inkscape:locked="false" /></sodipodi:namedview><defs
     id="defs1"><linearGradient
       id="linearGradient6"
       inkscape:collect="always"><stop
         style="stop-color:#00a6ff;stop-opacity:1;"
         offset="0"
         id="stop6" /><stop
         style="stop-color:#2563eb;stop-opacity:1;"
         offset="1"
         id="stop7" /></linearGradient><linearGradient
       inkscape:collect="always"
       xlink:href="#linearGradient6"
       id="linearGradient7"
       x1="101.10461"
       y1="90.010452"
       x2="101.10461"
       y2="190.0097"
       gradientUnits="userSpaceOnUse" /></defs><g
     inkscape:label="Layer 1"
     inkscape:groupmode="layer"
     id="layer1"
     transform="translate(-51.10913,-90.009471)"><path
       style="fill:url(#linearGradient7);stroke:none;stroke-width:1.03046"
       d="m 99.642997,189.96427 c -5.859061,-0.60065 -10.112277,-1.59211 -14.579471,-3.39863 -8.328332,-3.36794 -15.806856,-9.36707 -21.316211,-17.09945 -0.685889,-0.96265 -0.811316,-1.23449 -0.811316,-1.75836 0,-0.51447 0.07447,-0.68325 0.438592,-0.99402 l 0.438591,-0.37432 h 3.163056 c 2.804688,0 3.219331,-0.0303 3.659763,-0.26772 0.750699,-0.40463 1.138186,-1.07646 1.138186,-1.97341 0,-0.95482 -0.409829,-1.61519 -1.27868,-2.06039 -0.628626,-0.32212 -0.69452,-0.32534 -6.670208,-0.32534 -6.435997,0 -6.64901,-0.0217 -7.014786,-0.71493 -0.187599,-0.35554 -0.188041,-0.96094 -9.58e-4,-1.3155 0.334241,-0.63346 0.423065,-0.64106 8.381997,-0.71675 l 7.601232,-0.0723 0.538682,-0.58591 c 0.731625,-0.79576 0.848842,-1.46418 0.41169,-2.34764 -0.181295,-0.36638 -0.510675,-0.79967 -0.731954,-0.96285 -0.393575,-0.29024 -0.606724,-0.29826 -9.797273,-0.36899 l -9.394946,-0.0723 -0.388026,-0.39368 c -0.539364,-0.54721 -0.537289,-1.32092 0.0048,-1.79389 0.324602,-0.2832 0.550945,-0.34274 1.303061,-0.34274 0.500622,0 0.941191,-0.0508 0.979043,-0.11294 0.03785,-0.0622 -0.02498,-0.56638 -0.139621,-1.12056 -0.649815,-3.14125 -0.833882,-5.49003 -0.832478,-10.62281 0.0011,-3.99938 0.05158,-5.34664 0.254665,-6.79568 0.827857,-5.90697 2.48686,-11.28051 5.088003,-16.48014 1.273018,-2.54472 2.390972,-4.34754 4.35048,-7.01561 7.878131,-10.726905 18.809232,-17.310831 32.312476,-19.462169 2.430989,-0.387308 7.741084,-0.532973 10.183424,-0.279355 4.6225,0.480003 9.06744,1.58692 13.37812,3.331534 11.70277,4.736331 21.17459,13.81579 26.36201,25.27001 2.07644,4.58492 3.4016,9.2898 4.16297,14.78031 0.36125,2.60509 0.36171,9.85593 8e-4,12.50696 -1.20635,8.86085 -3.61818,15.61211 -7.88452,22.07043 -4.87783,7.384 -11.24477,13.11903 -18.82198,16.95395 -4.40538,2.2296 -9.91967,3.90587 -15.29467,4.64938 -1.56113,0.21595 -7.89487,0.39905 -9.194552,0.26581 z m 2.066993,-6.34637 v -3.68703 h -7.331696 -7.33169 L 86.721,180.4008 c -0.179082,0.25845 -0.765872,1.04491 -1.303977,1.74769 -0.538106,0.70277 -0.957249,1.29898 -0.931428,1.32489 0.272721,0.27362 4.875517,1.82382 7.085321,2.3863 2.707091,0.68907 7.074794,1.3505 9.390674,1.42211 l 0.7484,0.0231 z m 7.19884,3.30771 c 0.86244,-0.11893 2.35947,-0.37783 3.32675,-0.57531 2.9017,-0.59242 8.09172,-2.19653 8.79542,-2.71846 0.29525,-0.21897 0.40451,-0.028 -1.27399,-2.22617 l -1.12615,-1.4748 h -7.32002 -7.32003 v 3.70668 3.70668 l 1.67497,-0.10122 c 0.92125,-0.0556 2.38062,-0.1985 3.24305,-0.31745 z m 18.38465,-6.76363 1.56357,-1.02635 -3.41674,-0.0421 c -3.32902,-0.041 -4.34333,0.0141 -4.34333,0.23607 0,0.10315 1.23367,1.77994 1.99492,2.71146 l 0.35558,0.43513 1.14121,-0.64393 c 0.62767,-0.35416 1.84482,-1.10578 2.70479,-1.67029 z m -43.390033,0.37392 c 0.463606,-0.58176 0.84292,-1.11559 0.84292,-1.18631 0,-0.243 -0.933953,-0.29806 -4.344239,-0.25605 l -3.417656,0.0421 1.635762,1.03451 c 0.89967,0.56897 2.116875,1.30077 2.704898,1.6262 l 1.069137,0.5917 0.333128,-0.39719 c 0.183221,-0.21846 0.712443,-0.87318 1.17605,-1.45495 z m 17.806543,-4.27684 v -1.35836 l -2.245189,-0.0901 c -1.234848,-0.0495 -3.614697,-0.19398 -5.288546,-0.32104 -2.5709,-0.19513 -3.072361,-0.20036 -3.230153,-0.0336 -0.102735,0.10856 -0.673406,0.86429 -1.268156,1.67941 l -1.081365,1.48205 h 6.556703 6.556706 z m 14.19969,-0.26825 -1.19499,-1.62662 -0.76466,0.003 c -0.42056,0.002 -1.9514,0.0808 -3.40186,0.17614 -1.45046,0.0952 -3.51923,0.21453 -4.59728,0.26497 l -1.96008,0.0918 v 1.35879 1.35878 h 6.55693 6.55694 z m 4.64834,1.15672 c 0.5937,-0.31651 0.75638,-0.32728 6.00193,-0.39762 l 5.3917,-0.0723 1.92615,-1.80736 c 1.05937,-0.99405 2.04826,-1.97902 2.19752,-2.18882 l 0.27137,-0.38145 -0.67481,-0.10264 c -0.37116,-0.0565 -1.90403,-0.34886 -3.40639,-0.64979 l -2.73158,-0.54715 -1.47435,0.42431 c -3.65769,1.05264 -9.27488,2.28621 -10.41946,2.28816 -0.2156,3.7e-4 -0.39201,0.0693 -0.39201,0.15334 0,0.18981 2.45622,3.59679 2.59718,3.60249 0.0564,0.002 0.37712,-0.14223 0.71275,-0.32117 z m -33.201675,-1.50677 c 0.690656,-0.91804 1.225047,-1.7003 1.187534,-1.73835 -0.03751,-0.038 -0.987485,-0.22517 -2.111048,-0.41583 -3.493779,-0.59286 -5.740464,-1.11206 -8.434602,-1.94921 l -1.830115,-0.56869 -0.949638,0.21527 c -0.522301,0.11839 -2.001435,0.40934 -3.286964,0.64655 -1.285528,0.23719 -2.35953,0.4538 -2.386671,0.48133 -0.02715,0.0275 0.93684,1.03735 2.142178,2.24406 l 2.191523,2.19402 5.255723,0.008 c 4.767285,0.007 5.315339,0.0326 5.897205,0.27418 0.352815,0.14647 0.737704,0.26895 0.855308,0.27216 0.117605,0.003 0.778911,-0.74531 1.469567,-1.66336 z m 14.353645,-4.52982 v -1.4459 h -3.63252 -3.632522 l -0.92656,1.19286 -0.926561,1.19286 0.73846,0.11138 c 0.999079,0.15069 4.494756,0.3475 6.633444,0.37348 l 1.746259,0.0212 z m 9.29188,1.20796 c 0.91595,-0.052 1.74325,-0.14327 1.83844,-0.20293 0.12089,-0.0758 -0.0806,-0.45057 -0.66866,-1.24356 l -0.8417,-1.13507 -3.66957,-0.0386 -3.66957,-0.0386 v 1.47121 1.47121 l 2.67283,-0.0946 c 1.47007,-0.052 3.42227,-0.13711 4.33823,-0.18906 z m -20.069564,-1.64173 0.699289,-0.93983 -1.054878,-0.0478 c -1.09795,-0.0496 -6.693153,0.21347 -8.182448,0.38479 l -0.855309,0.0984 1.568066,0.34119 c 2.542441,0.5532 6.091004,1.15788 6.627851,1.12941 0.434607,-0.023 0.587327,-0.14629 1.197429,-0.96625 z m 27.942684,0.56773 c 0.934,-0.15546 2.5377,-0.46067 3.56379,-0.67822 l 1.86561,-0.39558 -0.85531,-0.0909 c -1.31724,-0.13999 -8.20164,-0.44664 -8.79334,-0.39167 l -0.52535,0.0488 0.72816,0.98952 0.72815,0.98951 0.79505,-0.0944 c 0.43729,-0.0519 1.55924,-0.22161 2.49324,-0.37707 z m -24.212558,-4.03754 c 2.71376,-0.69773 4.807689,-1.87535 7.510848,-4.22405 0.45081,-0.39169 0.81877,-0.62638 0.81766,-0.52151 -10e-4,0.10486 -0.25553,0.66239 -0.56538,1.23893 -0.30987,0.57656 -0.50947,1.04828 -0.44358,1.04828 0.72727,0 3.20045,-1.30513 4.55266,-2.40249 3.11881,-2.53102 5.5194,-6.1737 7.02126,-10.65412 0.52794,-1.57496 0.58907,-1.87106 0.41006,-1.98589 -0.11571,-0.0742 -0.75563,-0.13968 -1.42207,-0.14549 -1.57208,-0.0137 -2.17862,-0.13721 -2.62759,-0.53514 -0.51432,-0.45582 -0.48931,-1.06285 0.0632,-1.53442 0.42565,-0.36327 0.44549,-0.36564 2.38774,-0.28414 4.49102,0.18844 10.24922,-0.7657 14.28922,-2.36774 1.65775,-0.65736 4.42586,-2.08299 4.9488,-2.54869 0.88608,-0.78912 1.11697,-1.77728 0.63151,-2.70266 -0.27747,-0.52887 -1.17205,-1.14803 -1.66459,-1.15208 -0.15926,-0.001 -1.34997,0.31701 -2.64603,0.70736 -3.44987,1.03906 -5.30123,1.33391 -8.92434,1.42134 -1.66197,0.0402 -3.18371,0.0316 -3.38166,-0.0187 -0.84776,-0.21582 -1.24627,-1.36593 -0.67431,-1.94607 0.23177,-0.23509 0.59859,-0.27803 3.02922,-0.35461 1.94235,-0.0613 3.14838,-0.17183 4.05178,-0.37172 3.67105,-0.81223 6.58944,-2.39672 8.80807,-4.78221 1.31755,-1.41663 1.9089,-2.51804 2.15939,-4.02183 l 0.10201,-0.61258 -0.68965,-5.5e-4 c -1.1883,-9.4e-4 -2.04388,-0.8451 -2.04388,-2.01659 0,-0.82352 0.71145,-1.74219 1.34921,-1.74219 0.34613,0 0.26025,-0.32441 -0.32899,-1.24274 -2.76967,-4.31656 -7.69254,-8.37944 -12.53015,-10.34119 -3.15118,-1.27786 -5.17103,-1.64342 -9.08876,-1.64487 -2.72793,-10e-4 -4.91802,0.20922 -4.91802,0.4721 0,0.0435 0.39162,0.65895 0.87027,1.36778 1.01677,1.50575 1.17758,2.13652 0.70102,2.74972 -0.60707,0.78112 -1.47067,0.46465 -2.07151,-0.7591 -0.76366,-1.55534 -2.83149,-3.79426 -4.615862,-4.99774 -3.354894,-2.26275 -7.633402,-2.52854 -11.321906,-0.70336 -3.251196,1.60878 -5.572932,4.67639 -6.44889,8.52059 -0.70252,3.08306 0.188264,7.1924 2.146973,9.90436 1.022512,1.41573 2.752713,2.87355 4.422788,3.7265 1.701257,0.86889 2.786279,1.11517 4.913,1.11517 2.095624,0 2.955607,-0.18929 4.918486,-1.08256 0.523988,-0.23846 1.034296,-0.43355 1.134014,-0.43355 0.374522,0 0.932517,0.59559 0.932517,0.99535 0,0.54344 -0.449446,0.98574 -1.480232,1.45671 -6.488024,2.96435 -11.373326,9.49106 -12.721059,16.99518 -0.330989,1.84293 -0.343284,6.36276 -0.02193,8.06086 0.200581,1.05989 0.19827,1.12056 -0.04268,1.12056 -0.140108,0 -1.25392,-0.52053 -2.475139,-1.15672 -1.221219,-0.6362 -2.383481,-1.15671 -2.582806,-1.15671 -0.807123,0 -1.173942,0.39279 -3.008446,3.22153 -2.354116,3.62994 -2.527204,3.96948 -2.403153,4.71423 0.0624,0.37465 0.287502,0.80179 0.627079,1.18991 0.478448,0.54685 0.604969,0.61112 1.30695,0.66398 1.118233,0.0842 1.483097,-0.20631 2.766248,-2.20239 l 1.081562,-1.68251 0.674252,0.51895 c 2.449856,1.88551 5.029849,3.01755 7.768892,3.40877 1.268759,0.18122 3.427835,0.0496 4.74587,-0.28925 z m -3.002321,-39.30931 c -1.29383,-0.3771 -2.249927,-0.97321 -3.255653,-2.02985 -1.44872,-1.52206 -2.090026,-3.09998 -2.090026,-5.14247 0,-4.25231 3.090155,-7.45048 7.198847,-7.45048 2.574546,0 4.759545,1.22561 6.19164,3.47301 0.819701,1.28638 1.395761,3.25668 0.987161,3.37641 -1.218736,0.35707 -1.506953,0.50581 -2.052653,1.05931 -1.102806,1.11857 -1.392607,3.08564 -0.663599,4.50427 l 0.319086,0.62091 -0.323824,0.27267 c -1.62195,1.36571 -4.256195,1.91511 -6.310979,1.31622 z m 21.504279,-0.15742 c -1.73931,-0.88909 -2.67696,-2.36484 -2.6683,-4.19955 0.009,-1.95276 0.86073,-3.43329 2.4231,-4.21311 0.87147,-0.43497 1.0939,-0.48469 2.11678,-0.47324 1.88791,0.0212 3.35942,0.95495 4.16241,2.64145 0.32911,0.69124 0.38856,1.00367 0.38908,2.0449 7.6e-4,1.49242 -0.28817,2.23433 -1.25009,3.21 -0.957,0.97069 -1.77672,1.33157 -3.15628,1.38955 -1.04113,0.0438 -1.2167,0.009 -2.0167,-0.4 z m 1.69597,-5.47422 c 0.30658,-0.2893 0.39202,-0.5012 0.39202,-0.97239 0,-0.84945 -0.4877,-1.36766 -1.28713,-1.36766 -1.48174,0 -1.97566,2.00844 -0.65401,2.65935 0.5451,0.26845 1.03273,0.16794 1.54912,-0.3193 z m 15.98322,41.85731 c 0.29116,-0.19349 2.84527,-3.27627 4.11653,-4.9686 1.03304,-1.37519 -0.0598,-3.17865 -1.84403,-3.04309 -0.86022,0.0654 -1.55301,0.56734 -2.61071,1.89162 -0.35282,0.44175 -0.68445,0.80632 -0.73696,0.81018 -0.0525,0.004 -0.42994,-0.4647 -0.83874,-1.04126 -1.24445,-1.75507 -4.10979,-4.52723 -5.98007,-5.78558 -0.90194,-0.60683 -1.96038,-1.24477 -2.35211,-1.41767 -0.39171,-0.17288 -1.06502,-0.47856 -1.49623,-0.67928 -0.83118,-0.38688 -2.01176,-0.50854 -2.28165,-0.2351 -0.0869,0.088 -0.34543,0.8159 -0.57448,1.61745 -1.08139,3.78433 -3.13102,7.67416 -5.53729,10.50881 -0.47082,0.55463 -0.84367,1.01905 -0.82858,1.03206 0.015,0.013 0.67668,-0.0927 1.47019,-0.23494 2.71189,-0.48606 4.47886,-0.61232 7.55562,-0.53989 4.18288,0.0985 6.32768,0.51492 8.89182,1.72653 1.61274,0.76204 2.31539,0.84478 3.04669,0.35876 z M 83.595639,153.8796 c 0.03296,-3.04209 0.704941,-6.3595 1.794305,-8.85795 0.402574,-0.92332 0.441853,-1.23807 0.154498,-1.23807 -0.350096,0 -3.376133,-1.2887 -4.78455,-2.03759 -2.182882,-1.16071 -3.890891,-2.48486 -6.137444,-4.75811 -1.139553,-1.1531 -2.393482,-2.47067 -2.786508,-2.92793 -0.585732,-0.68147 -0.795244,-0.83139 -1.161858,-0.83139 -0.564236,0 -1.038166,0.56711 -1.038166,1.24229 0,0.80705 0.950322,4.29638 1.625536,5.96854 1.827689,4.52622 3.731535,7.36751 7.424101,11.07971 1.662744,1.67158 4.4261,3.95889 4.799579,3.97274 0.05115,0.002 0.100885,-0.7236 0.110507,-1.61224 z m 58.251601,-1.13149 c 0.19104,0 0.34735,-0.0651 0.34735,-0.1446 0,-0.0795 -0.16037,-0.14458 -0.35638,-0.14458 -0.29101,0 -0.35844,-0.0729 -0.36763,-0.39763 l -0.0113,-0.39762 -0.14319,0.39762 c -0.10231,0.28401 -0.2416,0.39763 -0.48767,0.39763 -0.18947,0 -0.34449,0.0651 -0.34449,0.14458 0,0.0795 0.16196,0.1446 0.35994,0.1446 0.28987,0 0.38004,0.0914 0.46318,0.4699 l 0.10324,0.46992 0.0448,-0.46992 c 0.037,-0.38915 0.10448,-0.4699 0.39213,-0.4699 z m -7.92063,-2.64188 c 0.12441,-0.27159 0.40757,-0.55329 0.67712,-0.67362 0.25481,-0.11376 0.46329,-0.28095 0.46329,-0.37153 0,-0.0906 -0.20848,-0.25778 -0.46329,-0.37153 -0.26955,-0.12032 -0.55271,-0.40202 -0.67712,-0.67361 -0.26624,-0.5812 -0.36261,-0.58625 -0.64426,-0.0339 -0.12317,0.24156 -0.44555,0.54641 -0.71643,0.67743 -0.27086,0.13101 -0.49248,0.28587 -0.49248,0.34411 0,0.0582 0.24056,0.22512 0.53457,0.37084 0.37841,0.18755 0.57441,0.4022 0.67095,0.73485 0.17217,0.59316 0.37494,0.59219 0.64765,-0.003 z m -66.001311,-0.79609 c 0,-0.40634 0.403808,-0.88573 0.936118,-1.11131 0.269168,-0.11408 0.489396,-0.26592 0.489396,-0.33745 0,-0.0715 -0.257929,-0.2328 -0.573176,-0.3584 -0.424794,-0.16925 -0.628256,-0.36208 -0.785945,-0.74487 -0.117024,-0.28409 -0.24268,-0.51652 -0.279236,-0.51652 -0.03656,0 -0.189603,0.24482 -0.340104,0.54405 -0.190087,0.37792 -0.430364,0.60152 -0.786929,0.7323 -0.282311,0.10357 -0.513293,0.2486 -0.513293,0.32235 0,0.0738 0.240213,0.24882 0.533805,0.38905 0.352536,0.16836 0.619159,0.4388 0.785155,0.79637 0.265614,0.57216 0.534209,0.71517 0.534209,0.28443 z m 75.251261,-3.0067 c 0.24079,-0.80098 0.62325,-1.71596 0.84989,-2.03331 0.55787,-0.78113 1.56157,-1.40404 3.01489,-1.87109 0.66642,-0.21416 1.26396,-0.43693 1.32786,-0.49502 0.0639,-0.0581 -0.1927,-0.18236 -0.57021,-0.27612 -2.94554,-0.73162 -4.05116,-1.76224 -4.74967,-4.42749 -0.38183,-1.45688 -0.41956,-1.56964 -0.49852,-1.48955 -0.0356,0.0361 -0.22732,0.63474 -0.42605,1.33029 -0.78898,2.76156 -1.48672,3.50977 -4.06415,4.35816 -0.66643,0.21935 -1.27134,0.43371 -1.34427,0.47634 -0.0729,0.0427 0.43509,0.23036 1.12889,0.41717 2.31228,0.62259 3.27399,1.54118 4.03488,3.85394 0.23954,0.72812 0.47971,1.51903 0.53371,1.75761 0.11911,0.52622 0.13041,0.50252 0.76275,-1.60093 z m -81.238421,0.0967 c 0,-0.52376 0.672086,-2.28751 1.12751,-2.95891 0.503953,-0.74294 1.483675,-1.3323 2.917591,-1.75511 0.452533,-0.13344 0.801995,-0.26347 0.77658,-0.28896 -0.02542,-0.0256 -0.55371,-0.25071 -1.17399,-0.50047 -0.62028,-0.24976 -1.401006,-0.65312 -1.734945,-0.89637 -0.72502,-0.52811 -1.388459,-1.71024 -1.686095,-3.00434 -0.114471,-0.49771 -0.231771,-0.92891 -0.260665,-0.95823 -0.02889,-0.0293 -0.225947,0.48158 -0.437894,1.13528 -0.211947,0.65371 -0.530173,1.4468 -0.707168,1.76242 -0.45219,0.80636 -1.499302,1.55626 -2.828243,2.0255 -0.624875,0.22063 -1.107679,0.43001 -1.072898,0.4653 0.03478,0.0353 0.434824,0.16256 0.888986,0.28284 1.057965,0.28023 2.021389,0.78053 2.50726,1.30202 0.500936,0.53766 1.069554,1.79189 1.284368,2.83297 0.165093,0.80013 0.399603,1.12646 0.399603,0.55606 z m 20.172496,-9.7058 c 0.327515,-1.00016 0.801697,-1.52118 1.64208,-1.8043 0.389702,-0.1313 0.70855,-0.29099 0.70855,-0.3549 0,-0.0639 -0.354585,-0.26214 -0.787966,-0.44055 -0.910874,-0.37498 -1.23945,-0.74194 -1.571064,-1.75461 -0.265773,-0.81161 -0.342922,-0.78903 -0.708488,0.20731 -0.293433,0.79975 -0.788333,1.27267 -1.702326,1.62673 -0.355911,0.13786 -0.647111,0.29916 -0.647111,0.35844 0,0.0592 0.287011,0.18109 0.637804,0.27068 0.928795,0.23721 1.59692,0.89509 1.867378,1.83873 0.122939,0.42894 0.245892,0.7799 0.273229,0.7799 0.02734,0 0.156899,-0.32736 0.287914,-0.72743 z m 55.071485,-1.42507 c 0.0795,-0.57006 -0.56297,-0.81566 -0.82661,-0.316 -0.22347,0.42354 -0.0323,0.7565 0.4047,0.7051 0.26968,-0.0318 0.38721,-0.14012 0.42191,-0.3891 z m 10.36463,-2.54008 c 0.19245,-0.1952 0.34989,-0.47435 0.34989,-0.62033 0,-0.71213 -0.78496,-4.59967 -1.22968,-6.09007 -4.09169,-13.71248 -14.26456,-24.86247 -27.49443,-30.1353 -4.5149,-1.799441 -9.68875,-2.996397 -13.16762,-3.046284 -1.45558,-0.02086 -1.48294,-0.01505 -1.77321,0.375226 -0.28142,0.378434 -0.28416,0.419084 -0.0604,0.895113 0.25845,0.549743 0.85013,0.802178 1.88645,0.804856 0.86074,0.002 4.06914,0.506892 5.99165,0.942466 6.29108,1.425335 13.15205,4.798273 18.24999,8.971903 0.70996,0.58124 2.1262,1.89673 3.14717,2.92331 6.32981,6.36451 10.7635,14.64574 12.24757,22.87598 0.2759,1.53007 0.41673,2.00665 0.65154,2.205 0.41278,0.34867 0.78824,0.31682 1.20103,-0.10191 z m -87.89978,-0.17066 c 0.162497,-0.20954 0.296506,-0.55113 0.297796,-0.75909 0.0034,-0.53674 0.774551,-4.00617 1.220325,-5.4898 1.14912,-3.82452 3.381781,-8.46806 5.745616,-11.94986 3.271868,-4.81928 8.866322,-10.23052 13.487842,-13.04611 5.662938,-3.450068 12.108843,-5.625442 18.777799,-6.337145 2.170902,-0.231668 2.425182,-0.338197 2.606352,-1.091909 0.0676,-0.281161 2.3e-4,-0.48375 -0.26432,-0.795235 -0.33418,-0.393451 -0.41213,-0.415909 -1.32902,-0.382751 -1.338412,0.04836 -3.917277,0.41734 -5.946488,0.850767 -6.518861,1.392374 -13.087615,4.340649 -18.068357,8.109673 -8.213803,6.21555 -14.347433,15.11483 -17.069339,24.76592 -0.507804,1.80052 -1.158477,4.8878 -1.158477,5.49668 0,0.94439 1.131125,1.36275 1.700271,0.62886 z m 81.34982,-1.63633 c 0.17121,-0.43399 0.34233,-0.61055 0.71161,-0.73416 0.61348,-0.20537 0.62346,-0.49377 0.0229,-0.66218 -0.35142,-0.0986 -0.53125,-0.27817 -0.74471,-0.74387 -0.15478,-0.33767 -0.32703,-0.61394 -0.38279,-0.61394 -0.0558,0 -0.1849,0.23428 -0.28698,0.52063 -0.12894,0.36166 -0.34938,0.60538 -0.72198,0.79819 -0.29501,0.15265 -0.53638,0.30788 -0.53638,0.34496 0,0.037 0.22862,0.1643 0.50804,0.28271 0.36861,0.15622 0.574,0.3746 0.74839,0.79572 0.1322,0.31923 0.28899,0.58107 0.34843,0.58187 0.0594,8.1e-4 0.2095,-0.25567 0.33347,-0.56993 z m -76.492725,-0.15154 c 0.307992,-0.58372 -0.37244,-1.15488 -0.826798,-0.69402 -0.184392,0.18701 -0.230917,0.7297 -0.07603,0.88681 0.200224,0.20308 0.75664,0.0843 0.902826,-0.19279 z m 11.480397,-1.59869 c 0.05121,-0.0841 0.05276,-0.31588 0.0035,-0.51519 -0.07221,-0.29181 -0.164793,-0.35355 -0.475494,-0.31711 -0.391583,0.046 -0.559417,0.36796 -0.404794,0.77665 0.09114,0.24092 0.738907,0.28202 0.876847,0.0557 z m -4.941673,-1.19279 c 0.0931,-0.42197 0.356966,-1.16977 0.586364,-1.66175 0.483373,-1.03671 1.246007,-1.62601 2.604046,-2.0122 0.450819,-0.1282 0.819671,-0.28226 0.819671,-0.34235 0,-0.06 -0.336778,-0.21964 -0.748395,-0.35457 -1.780745,-0.58368 -2.668097,-1.55769 -3.185543,-3.4966 -0.135025,-0.50596 -0.291099,-0.86849 -0.346829,-0.80561 -0.05573,0.0629 -0.236519,0.56976 -0.401751,1.12643 -0.165232,0.55667 -0.428027,1.22163 -0.583988,1.47766 -0.389674,0.63975 -1.272824,1.25736 -2.36724,1.65548 -0.505637,0.18393 -0.918738,0.36754 -0.918005,0.40801 7.34e-4,0.0405 0.465808,0.21744 1.033497,0.39327 0.580291,0.17973 1.262289,0.5134 1.557811,0.76216 0.601769,0.50655 1.143458,1.58001 1.40583,2.78591 0.09948,0.45727 0.22462,0.83139 0.278071,0.83139 0.05345,0 0.173358,-0.34525 0.266461,-0.76723 z m 66.989161,-4.18909 c 0.20553,-0.47126 0.41087,-0.68316 0.86198,-0.88949 0.3257,-0.14898 0.59219,-0.31617 0.59219,-0.37155 0,-0.0554 -0.25453,-0.20211 -0.56561,-0.32606 -0.43833,-0.17464 -0.63721,-0.3748 -0.88372,-0.88946 -0.17496,-0.36526 -0.35669,-0.66411 -0.40385,-0.66411 -0.0472,0 -0.21968,0.27965 -0.3834,0.62144 -0.21927,0.45776 -0.45204,0.69205 -0.88371,0.88949 -0.32233,0.14743 -0.58606,0.30865 -0.58606,0.35828 0,0.0496 0.27264,0.21866 0.60585,0.37566 0.45285,0.21335 0.67691,0.44061 0.88726,0.89994 0.15477,0.33798 0.32818,0.61451 0.38535,0.61451 0.0572,0 0.22533,-0.2784 0.37372,-0.61865 z m -60.722952,-4.86412 c 0.06478,-0.44045 -0.219552,-0.73457 -0.71011,-0.73457 -0.693207,0 -0.859769,1.04231 -0.207681,1.29962 0.383733,0.1514 0.855099,-0.1388 0.917791,-0.56505 z m 55.886082,-2.60772 c 0.22976,-0.77782 0.77627,-1.39839 1.41331,-1.6048 0.83988,-0.27216 0.83611,-0.38315 -0.0276,-0.81282 -0.7274,-0.36185 -0.85785,-0.49887 -1.25608,-1.31937 l -0.4444,-0.91559 -0.2531,0.67631 c -0.32521,0.86901 -0.53907,1.09844 -1.40912,1.51178 -0.39198,0.18622 -0.71269,0.38368 -0.71269,0.43881 0,0.0551 0.28684,0.21133 0.63743,0.34714 0.74874,0.29003 1.28417,0.88145 1.51961,1.67854 0.0929,0.31452 0.21276,0.57184 0.26634,0.57184 0.0536,0 0.17343,-0.25732 0.26633,-0.57184 z m -62.642762,-0.37836 c 0.265865,-0.26966 0.292826,-0.80186 0.05295,-1.04517 -0.09408,-0.0954 -0.337846,-0.1735 -0.541694,-0.1735 -0.684572,0 -0.948194,0.65319 -0.476837,1.18147 0.289542,0.32452 0.66795,0.3391 0.965584,0.0371 z m 6.205074,-2.06325 c 0.171252,-0.64507 0.448701,-0.93534 1.197229,-1.25258 0.29657,-0.12567 0.518741,-0.28974 0.493713,-0.36457 -0.02503,-0.0748 -0.334173,-0.28353 -0.686987,-0.46379 -0.540757,-0.27628 -0.686248,-0.44668 -0.926584,-1.08523 -0.156807,-0.41661 -0.326259,-0.75821 -0.376563,-0.75909 -0.0503,-8.9e-4 -0.135482,0.17732 -0.189288,0.396 -0.152465,0.61971 -0.704388,1.25512 -1.34448,1.5479 -0.321376,0.14698 -0.58432,0.31214 -0.58432,0.36699 0,0.0549 0.251866,0.17629 0.559701,0.26983 0.639263,0.19427 1.225443,0.82287 1.363995,1.46271 0.128696,0.59432 0.316359,0.5494 0.493584,-0.11817 z m 48.819778,-2.85277 c 0.25502,-0.25869 0.26867,-0.34496 0.0978,-0.61841 -0.29554,-0.47303 -0.88404,0.0831 -0.67438,0.63718 0.10237,0.27056 0.29757,0.26421 0.57656,-0.0188 z m -21.08743,-1.52009 c 1.64134,-0.44052 3.64955,-0.61163 6.12765,-0.52206 1.25559,0.0453 2.44149,0.13045 2.63534,0.18907 0.33963,0.10275 0.33475,0.0839 -0.13421,-0.51665 -1.01721,-1.3027 -3.10328,-2.64741 -4.85117,-3.12712 -1.23352,-0.33855 -3.46821,-0.33962 -4.69185,-0.002 -1.63439,0.45063 -4.136892,1.99036 -3.594989,2.21189 0.352219,0.144 2.678549,1.7624 2.870469,1.99694 0.10894,0.13314 0.2827,0.18921 0.41427,0.13367 0.12465,-0.0526 0.67567,-0.21619 1.22449,-0.36349 z m 15.7298,-1.76592 c 0.25087,-1.01052 0.72003,-1.58052 1.59182,-1.93397 0.42632,-0.17285 0.79443,-0.37295 0.81799,-0.44467 0.0235,-0.0717 -0.34096,-0.29838 -0.81007,-0.5037 -0.93741,-0.41025 -1.32707,-0.88845 -1.60021,-1.96386 -0.17919,-0.70552 -0.25629,-0.66851 -0.60382,0.28984 -0.30158,0.83162 -0.91114,1.45884 -1.66206,1.71021 -0.60108,0.20122 -1.04546,0.57462 -0.68691,0.57721 0.10759,7.8e-4 0.52633,0.15759 0.93051,0.34846 0.78359,0.37008 1.34973,1.13016 1.54331,2.072 0.13181,0.64137 0.29545,0.58966 0.47944,-0.15152 z m 8.83181,0.15873 c 0.18997,-0.19267 0.225,-0.81792 0.0606,-1.08018 -0.17608,-0.28079 -0.79288,-0.36688 -1.08334,-0.15122 -0.30498,0.22645 -0.35311,0.86537 -0.0894,1.18759 0.21304,0.26037 0.87314,0.28637 1.11227,0.0438 z m -46.882919,-0.63327 c 0.192212,-0.77425 0.690351,-1.2967 1.45916,-1.53032 0.301713,-0.0917 0.54857,-0.22378 0.54857,-0.29355 0,-0.0698 -0.294653,-0.25495 -0.654785,-0.41153 -0.870642,-0.37853 -1.160246,-0.74174 -1.549534,-1.94335 -0.07744,-0.23904 -0.139823,-0.17975 -0.377579,0.35887 -0.374178,0.84771 -0.62778,1.11561 -1.462508,1.54495 -0.748037,0.38474 -0.73589,0.4948 0.08394,0.76044 0.637036,0.20643 1.183552,0.827 1.413309,1.60482 0.0929,0.31451 0.215291,0.57185 0.271977,0.57185 0.05668,0 0.177038,-0.29799 0.26745,-0.66218 z m 10.296933,-5.07503 c 0.09622,-0.1176 0.529516,-0.39567 0.962877,-0.61794 l 0.78793,-0.40412 -0.707825,-0.36405 c -0.87916,-0.4522 -1.150825,-0.75244 -1.487872,-1.64442 -0.214827,-0.568528 -0.282879,-0.647587 -0.356085,-0.413677 -0.335938,1.073406 -0.700507,1.533527 -1.522244,1.921257 -0.45714,0.2157 -0.831832,0.429 -0.832648,0.474 -8.16e-4,0.045 0.349393,0.22935 0.778242,0.40963 0.814734,0.34252 1.241315,0.83997 1.438418,1.67738 0.169876,0.72173 0.230468,0.71316 0.502751,-0.0711 0.14383,-0.41426 0.340235,-0.84941 0.436456,-0.967 z m 19.675286,-0.28565 c 0.3405,-0.31256 0.33034,-0.66408 -0.0287,-0.99369 -0.41481,-0.38075 -1.04719,-0.14563 -1.11076,0.41299 -0.085,0.74706 0.58582,1.08892 1.13949,0.5807 z m -12.217754,-0.18865 c 0.343414,-0.38491 0.190614,-0.98338 -0.281761,-1.10365 -0.493774,-0.12569 -0.758192,0.0106 -0.866096,0.4468 -0.104865,0.42376 0.254442,0.94019 0.654125,0.94019 0.132501,0 0.354683,-0.1275 0.493732,-0.28334 z M 58.740914,171.7513 c -0.430564,-0.43672 -0.182834,-1.07409 0.417472,-1.07409 0.382104,0 0.641482,0.26308 0.641482,0.65065 0,0.60889 -0.628389,0.86016 -1.058954,0.42344 z m -4.654069,-3.3764 c -0.531663,-0.53926 -0.557249,-1.183 -0.06679,-1.68047 0.345372,-0.3503 0.382837,-0.3549 2.895425,-0.3549 2.360066,0 2.56813,0.0214 2.855782,0.29317 0.427205,0.4037 0.545894,0.97763 0.295681,1.42979 -0.357347,0.64576 -0.732075,0.73063 -3.235983,0.73292 l -2.327426,0.002 z m -2.544022,-7.18114 c -0.541074,-0.4618 -0.577274,-1.0365 -0.100691,-1.59849 0.66268,-0.78142 1.820005,-0.42175 2.027405,0.63007 0.07685,0.38973 0.02235,0.53369 -0.341948,0.90319 -0.533933,0.54156 -1.003991,0.56091 -1.584771,0.0653 z"
       id="path1"
       sodipodi:nodetypes="csssscsssssssscsssscssssssssssssssssssccccccsssssccsssscccccsssccssscsscssscsscssscccssscccccccssccccccsscsscsscssscsscssscssssccscccccccccsscccsscccccccccccscsssccscssccccccsscsssssssssssscsccssssscsssssssssssssssssssssssssssssscsssssssssssscsscssssssscssssssssscsssssssscssssssssssssscssssscsssssccsssssssssssssssssssssssssssssssssssssssssssssssssssssssssssssssssssssssssssssscssssssssssssscsssssssssssssssssssssssssccssccssssssssssssssssssssssssssssssssssssscsssssssscsssccssssssssssssssssscsscscsssccssssssssssscsssccsssssssssssssscsssssssssssssssssssssssssssssscsssssss" /></g><metadata
     id="metadata1"><rdf:RDF><cc:Work
         rdf:about=""><cc:license
           rdf:resource="http://creativecommons.org/licenses/by-nc-nd/4.0/" /><dc:title>Gerbo</dc:title><dc:date>04-22-2024</dc:date><dc:creator><cc:Agent><dc:title>Manuel &quot;Serverket&quot; Hernandez</dc:title></cc:Agent></dc:creator><dc:rights><cc:Agent><dc:title>Manuel &quot;Serverket&quot; Hernandez</dc:title></cc:Agent></dc:rights><dc:publisher><cc:Agent><dc:title>Manuel &quot;Serverket&quot; Hernandez</dc:title></cc:Agent></dc:publisher><dc:subject><rdf:Bag><rdf:li>lgoo</rdf:li></rdf:Bag></dc:subject><dc:description>Gerbo Software Logo</dc:description></cc:Work><cc:License
         rdf:about="http://creativecommons.org/licenses/by-nc-nd/4.0/"><cc:permits
           rdf:resource="http://creativecommons.org/ns#Reproduction" /><cc:permits
           rdf:resource="http://creativecommons.org/ns#Distribution" /><cc:requires
           rdf:resource="http://creativecommons.org/ns#Notice" /><cc:requires
           rdf:resource="http://creativecommons.org/ns#Attribution" /><cc:prohibits
           rdf:resource="http://creativecommons.org/ns#CommercialUse" /></cc:License></rdf:RDF></metadata></svg>
